<svg width="640" height="587" viewBox="0 0 640 587" fill="none" xmlns="http://www.w3.org/2000/svg">
<g filter="url(#filter0_d_63_35)">
<path fill-rule="evenodd" clip-rule="evenodd" d="M316.853 124.178C384.128 85.2849 430.564 -8.29739 507.763 0.591857C576.76 8.53681 619.929 92.4058 633.119 160.595C645.804 226.173 591.631 282.531 574.801 347.169C556.352 418.023 586.8 510.526 529.982 556.702C473.467 602.632 389.399 563.178 316.853 556.804C251.893 551.096 184.893 555.588 129.303 521.496C70.9172 485.69 1.43391 433.425 4.07294 364.985C6.83568 293.336 87.8899 254.031 141.455 206.366C169.446 181.457 204.952 171.936 238.881 156.037C264.943 143.825 291.937 138.583 316.853 124.178Z" fill="#5800FF"/>
</g>
<defs>
<filter id="filter0_d_63_35" x="0" y="0" width="639.025" height="586.637" filterUnits="userSpaceOnUse" color-interpolation-filters="sRGB">
<feFlood flood-opacity="0" result="BackgroundImageFix"/>
<feColorMatrix in="SourceAlpha" type="matrix" values="0 0 0 0 0 0 0 0 0 0 0 0 0 0 0 0 0 0 127 0" result="hardAlpha"/>
<feOffset dy="4"/>
<feGaussianBlur stdDeviation="2"/>
<feComposite in2="hardAlpha" operator="out"/>
<feColorMatrix type="matrix" values="0 0 0 0 0 0 0 0 0 0 0 0 0 0 0 0 0 0 0.25 0"/>
<feBlend mode="normal" in2="BackgroundImageFix" result="effect1_dropShadow_63_35"/>
<feBlend mode="normal" in="SourceGraphic" in2="effect1_dropShadow_63_35" result="shape"/>
</filter>
</defs>
</svg>
