<svg width="674" height="551" viewBox="0 0 674 551" fill="none" xmlns="http://www.w3.org/2000/svg">
<g filter="url(#filter0_d_63_39)">
<path fill-rule="evenodd" clip-rule="evenodd" d="M350.024 0.433118C404.82 5.85299 429.713 71.963 478.119 98.2068C538.766 131.087 644.776 106.206 666.122 171.808C687.464 237.399 585.046 278.7 557.411 341.898C534.144 395.104 561.219 467.319 519.316 507.524C476.773 548.342 408.936 543.216 350.024 540.879C293.207 538.626 241.463 519.107 190.216 494.472C127.221 464.19 48.704 445.395 19.395 381.942C-10.4995 317.221 6.3507 236.051 42.4582 174.58C75.3996 118.498 145.496 102.951 202.094 70.9048C250.816 43.318 294.306 -5.07801 350.024 0.433118Z" fill="#5800FF"/>
</g>
<defs>
<filter id="filter0_d_63_39" x="0" y="0" width="673.025" height="550.429" filterUnits="userSpaceOnUse" color-interpolation-filters="sRGB">
<feFlood flood-opacity="0" result="BackgroundImageFix"/>
<feColorMatrix in="SourceAlpha" type="matrix" values="0 0 0 0 0 0 0 0 0 0 0 0 0 0 0 0 0 0 127 0" result="hardAlpha"/>
<feOffset dy="4"/>
<feGaussianBlur stdDeviation="2"/>
<feComposite in2="hardAlpha" operator="out"/>
<feColorMatrix type="matrix" values="0 0 0 0 0 0 0 0 0 0 0 0 0 0 0 0 0 0 0.25 0"/>
<feBlend mode="normal" in2="BackgroundImageFix" result="effect1_dropShadow_63_39"/>
<feBlend mode="normal" in="SourceGraphic" in2="effect1_dropShadow_63_39" result="shape"/>
</filter>
</defs>
</svg>
