<svg width="321" height="91" viewBox="0 0 321 91" fill="none" xmlns="http://www.w3.org/2000/svg">
<path d="M64.336 46.728C64.8907 46.728 65.3173 46.984 65.616 47.496C65.9573 48.008 66.128 48.712 66.128 49.608C66.128 51.272 65.7227 52.5947 64.912 53.576C60.688 58.7387 56.1867 61.32 51.408 61.32C47.2693 61.32 43.9627 59.72 41.488 56.52C39.0133 53.32 37.776 48.7333 37.776 42.76C37.776 41.3093 37.84 39.8587 37.968 38.408C35.152 38.92 32.08 39.304 28.752 39.56C26.5333 39.7307 25.0187 39.8373 24.208 39.88C23.3547 44.232 22.16 49.5653 20.624 55.88C19.728 59.592 18.0213 61.448 15.504 61.448C12.7733 61.448 11.408 60.2107 11.408 57.736C11.408 57.1813 11.5147 56.4133 11.728 55.432C13.1787 49.5867 14.3307 44.6373 15.184 40.584L12.112 40.712C10.704 40.712 9.68 40.4773 9.04 40.008C8.4 39.496 8.08 38.6853 8.08 37.576C8.08 36.168 8.48533 35.144 9.296 34.504C10.1067 33.8213 11.4507 33.4373 13.328 33.352L16.72 33.224C17.8293 27.208 18.384 22.6213 18.384 19.464C18.384 17.4587 18.0853 16.0933 17.488 15.368C16.8907 14.6427 16.1013 14.28 15.12 14.28C12.1333 14.28 8.76267 16.776 5.008 21.768C4.45333 22.4933 3.83467 22.856 3.152 22.856C2.55467 22.856 2.04267 22.5787 1.616 22.024C1.18933 21.4693 0.976 20.7653 0.976 19.912C0.976 18.5893 1.50933 17.1813 2.576 15.688C4.45333 13.0853 6.82133 10.952 9.68 9.288C12.5387 7.58133 15.44 6.728 18.384 6.728C21.1573 6.728 23.2907 7.688 24.784 9.608C26.32 11.4853 27.088 14.4293 27.088 18.44C27.088 21.9813 26.576 26.7813 25.552 32.84L31.824 32.52C34.512 32.392 36.816 32.1787 38.736 31.88C39.504 27.1867 40.6773 22.792 42.256 18.696C43.8347 14.6 45.7973 11.272 48.144 8.712C50.4907 6.152 53.1147 4.872 56.016 4.872C58.1493 4.872 59.8347 5.72533 61.072 7.432C62.3093 9.096 62.928 11.2933 62.928 14.024C62.928 24.6053 57.5307 31.944 46.736 36.04C46.608 37.7467 46.544 39.5173 46.544 41.352C46.544 45.832 47.0987 49.0107 48.208 50.888C49.3173 52.7653 50.8747 53.704 52.88 53.704C54.6293 53.704 56.2293 53.256 57.68 52.36C59.1307 51.4213 60.7733 49.8427 62.608 47.624C63.12 47.0267 63.696 46.728 64.336 46.728ZM55.696 10.44C54.7573 10.44 53.7547 11.2933 52.688 13C51.664 14.7067 50.6827 17.032 49.744 19.976C48.8053 22.92 48.0587 26.1413 47.504 29.64C50.9173 28.232 53.4347 26.2267 55.056 23.624C56.6773 21.0213 57.488 17.672 57.488 13.576C57.488 12.5947 57.3173 11.8267 56.976 11.272C56.6347 10.7173 56.208 10.44 55.696 10.44ZM97.8035 46.728C98.3582 46.728 98.7848 46.984 99.0835 47.496C99.4248 48.008 99.5955 48.712 99.5955 49.608C99.5955 51.3147 99.1902 52.6373 98.3795 53.576C96.8008 55.496 94.5608 57.2667 91.6595 58.888C88.8008 60.5093 85.7288 61.32 82.4435 61.32C77.9635 61.32 74.4862 60.104 72.0115 57.672C69.5368 55.24 68.2995 51.912 68.2995 47.688C68.2995 44.744 68.9182 42.0133 70.1555 39.496C71.3928 36.936 73.0995 34.9093 75.2755 33.416C77.4942 31.9227 79.9902 31.176 82.7635 31.176C85.2382 31.176 87.2222 31.9227 88.7155 33.416C90.2088 34.8667 90.9555 36.8507 90.9555 39.368C90.9555 42.312 89.8888 44.8507 87.7555 46.984C85.6648 49.0747 82.1022 50.7387 77.0675 51.976C78.1342 53.9387 80.1608 54.92 83.1475 54.92C85.0675 54.92 87.2435 54.2587 89.6755 52.936C92.1502 51.5707 94.2835 49.8 96.0755 47.624C96.5875 47.0267 97.1635 46.728 97.8035 46.728ZM81.6755 37.448C80.0968 37.448 78.7528 38.3653 77.6435 40.2C76.5768 42.0347 76.0435 44.2533 76.0435 46.856V46.984C78.5608 46.3867 80.5448 45.4907 81.9955 44.296C83.4462 43.1013 84.1715 41.7147 84.1715 40.136C84.1715 39.3253 83.9368 38.6853 83.4675 38.216C83.0408 37.704 82.4435 37.448 81.6755 37.448ZM116.785 31.176C117.766 31.176 118.449 31.304 118.833 31.56C119.217 31.816 119.409 32.2427 119.409 32.84C119.409 33.864 118.854 37.512 117.745 43.784C116.763 49.8 116.187 53.3627 116.017 54.472C114.438 65.4373 112.262 74.12 109.489 80.52C106.715 86.92 103.025 90.12 98.4165 90.12C96.2405 90.12 94.4698 89.4373 93.1045 88.072C91.7392 86.7493 91.0565 85 91.0565 82.824C91.0565 80.8187 91.5045 78.7707 92.4005 76.68C93.3392 74.5893 95.0458 72.1787 97.5205 69.448C100.038 66.76 103.579 63.6667 108.145 60.168L108.337 58.696C108.635 57.1173 108.977 54.856 109.361 51.912C108.507 54.984 107.313 57.3307 105.777 58.952C104.241 60.5307 102.619 61.32 100.913 61.32C98.9925 61.32 97.4138 60.4453 96.1765 58.696C94.9818 56.904 94.3845 54.6853 94.3845 52.04C94.3845 48.84 94.5978 45.9173 95.0245 43.272C95.4512 40.584 96.1552 37.7467 97.1365 34.76C97.5632 33.48 98.1605 32.5627 98.9285 32.008C99.6965 31.4533 100.913 31.176 102.577 31.176C103.515 31.176 104.155 31.3253 104.497 31.624C104.881 31.9227 105.073 32.3707 105.073 32.968C105.073 33.3093 104.838 34.4613 104.369 36.424C103.942 38.0027 103.601 39.432 103.345 40.712C103.003 42.4613 102.705 44.1467 102.449 45.768C102.193 47.3467 102.065 48.648 102.065 49.672C102.065 51.2933 102.513 52.104 103.409 52.104C104.049 52.104 104.838 51.464 105.777 50.184C106.758 48.904 107.782 46.9627 108.849 44.36C109.958 41.7573 111.025 38.5573 112.049 34.76C112.39 33.48 112.902 32.5627 113.585 32.008C114.31 31.4533 115.377 31.176 116.785 31.176ZM99.1205 83.912C100.187 83.912 101.382 82.6747 102.705 80.2C104.027 77.7253 105.35 73.608 106.673 67.848C103.387 70.6213 100.998 73.1387 99.5045 75.4C98.0538 77.704 97.3285 79.7093 97.3285 81.416C97.3285 82.1413 97.4565 82.7387 97.7125 83.208C98.0112 83.6773 98.4805 83.912 99.1205 83.912ZM190.824 7.88C192.147 8.136 193.128 8.584 193.768 9.224C194.451 9.864 194.792 10.6107 194.792 11.464C194.792 12.872 194.387 13.896 193.576 14.536C192.808 15.176 191.571 15.432 189.864 15.304C186.024 15.0053 183.016 14.8133 180.84 14.728C178.707 14.6 175.891 14.5147 172.392 14.472C170.813 22.3227 169.363 30.216 168.04 38.152C167.571 41.0533 167.08 44.424 166.568 48.264C166.056 52.0613 165.715 55.1333 165.544 57.48C165.459 58.7173 164.947 59.6773 164.008 60.36C163.069 61 161.939 61.32 160.616 61.32C159.208 61.32 158.12 60.9787 157.352 60.296C156.584 59.6133 156.2 58.7173 156.2 57.608C156.2 56.584 156.349 54.8987 156.648 52.552C156.989 50.1627 157.373 47.6667 157.8 45.064C158.269 42.4613 158.632 40.2 158.888 38.28C159.357 35.0373 159.891 31.816 160.488 28.616C161.085 25.416 161.683 22.3867 162.28 19.528C162.408 18.888 162.557 18.1627 162.728 17.352C162.899 16.4987 163.091 15.56 163.304 14.536C159.123 14.664 155.837 15.0053 153.448 15.56C151.059 16.1147 149.352 16.904 148.328 17.928C147.347 18.9093 146.856 20.1893 146.856 21.768C146.856 23.2187 147.283 24.6053 148.136 25.928C148.307 26.2267 148.392 26.5467 148.392 26.888C148.392 27.6987 147.901 28.4667 146.92 29.192C145.981 29.8747 145 30.216 143.976 30.216C143.251 30.216 142.653 30.0027 142.184 29.576C141.331 28.8507 140.627 27.8267 140.072 26.504C139.517 25.1387 139.24 23.6027 139.24 21.896C139.24 18.2693 140.413 15.368 142.76 13.192C145.149 10.9733 148.755 9.352 153.576 8.328C158.44 7.304 164.669 6.792 172.264 6.792C176.957 6.792 180.691 6.87733 183.464 7.048C186.28 7.21866 188.733 7.496 190.824 7.88ZM220.217 46.728C220.772 46.728 221.198 46.984 221.497 47.496C221.838 48.008 222.009 48.712 222.009 49.608C222.009 51.3147 221.604 52.6373 220.793 53.576C218.83 55.8373 216.804 57.6933 214.713 59.144C212.665 60.5947 210.318 61.32 207.673 61.32C205.497 61.32 203.854 60.7013 202.745 59.464C201.636 58.184 201.081 56.3493 201.081 53.96C201.081 52.7653 201.38 50.632 201.977 47.56C202.532 44.872 202.809 43.016 202.809 41.992C202.809 41.3093 202.574 40.968 202.105 40.968C201.55 40.968 200.761 41.6933 199.737 43.144C198.713 44.552 197.689 46.4293 196.665 48.776C195.641 51.1227 194.809 53.5973 194.169 56.2C193.358 59.6133 191.353 61.32 188.153 61.32C186.873 61.32 186.02 60.872 185.593 59.976C185.209 59.0373 185.017 57.3733 185.017 54.984C185.017 53.6187 185.038 52.5307 185.081 51.72L185.145 46.6C185.145 40.0293 185.806 33.1813 187.129 26.056C188.494 18.9307 190.478 12.9573 193.081 8.136C195.726 3.272 198.884 0.839996 202.553 0.839996C204.516 0.839996 206.094 1.69333 207.289 3.4C208.526 5.064 209.145 7.24 209.145 9.928C209.145 14.2373 207.886 18.7173 205.369 23.368C202.852 27.976 198.756 33.3733 193.081 39.56C192.953 41.7787 192.889 44.0613 192.889 46.408C194.297 42.7813 195.854 39.8373 197.561 37.576C199.31 35.272 201.017 33.6293 202.681 32.648C204.388 31.6667 205.945 31.176 207.353 31.176C210.126 31.176 211.513 32.5627 211.513 35.336C211.513 37 211.044 40.008 210.105 44.36C209.294 48.072 208.889 50.5253 208.889 51.72C208.889 53.4267 209.508 54.28 210.745 54.28C211.598 54.28 212.601 53.768 213.753 52.744C214.948 51.6773 216.526 49.9707 218.489 47.624C219.001 47.0267 219.577 46.728 220.217 46.728ZM201.209 7.176C200.441 7.176 199.588 8.28533 198.649 10.504C197.71 12.68 196.793 15.6453 195.897 19.4C195.044 23.112 194.34 27.1653 193.785 31.56C196.43 28.4453 198.606 25.0533 200.313 21.384C202.062 17.7147 202.937 14.3867 202.937 11.4C202.937 10.0347 202.788 8.98933 202.489 8.264C202.19 7.53866 201.764 7.176 201.209 7.176ZM245.366 46.728C245.921 46.728 246.347 46.984 246.646 47.496C246.987 48.008 247.158 48.712 247.158 49.608C247.158 51.3147 246.753 52.6373 245.942 53.576C244.363 55.496 242.123 57.2667 239.222 58.888C236.363 60.5093 233.291 61.32 230.006 61.32C225.526 61.32 222.049 60.104 219.574 57.672C217.099 55.24 215.862 51.912 215.862 47.688C215.862 44.744 216.481 42.0133 217.718 39.496C218.955 36.936 220.662 34.9093 222.838 33.416C225.057 31.9227 227.553 31.176 230.326 31.176C232.801 31.176 234.785 31.9227 236.278 33.416C237.771 34.8667 238.518 36.8507 238.518 39.368C238.518 42.312 237.451 44.8507 235.318 46.984C233.227 49.0747 229.665 50.7387 224.63 51.976C225.697 53.9387 227.723 54.92 230.71 54.92C232.63 54.92 234.806 54.2587 237.238 52.936C239.713 51.5707 241.846 49.8 243.638 47.624C244.15 47.0267 244.726 46.728 245.366 46.728ZM229.238 37.448C227.659 37.448 226.315 38.3653 225.206 40.2C224.139 42.0347 223.606 44.2533 223.606 46.856V46.984C226.123 46.3867 228.107 45.4907 229.558 44.296C231.009 43.1013 231.734 41.7147 231.734 40.136C231.734 39.3253 231.499 38.6853 231.03 38.216C230.603 37.704 230.006 37.448 229.238 37.448ZM246.491 61.32C244.87 61.32 243.718 60.4667 243.035 58.76C242.395 57.0533 242.075 54.3227 242.075 50.568C242.075 45.0213 242.864 39.752 244.443 34.76C244.827 33.5227 245.446 32.6267 246.299 32.072C247.195 31.4747 248.432 31.176 250.011 31.176C250.864 31.176 251.462 31.2827 251.803 31.496C252.144 31.7093 252.315 32.1147 252.315 32.712C252.315 33.3947 251.995 34.9307 251.355 37.32C250.928 39.0267 250.587 40.52 250.331 41.8C250.075 43.08 249.862 44.6587 249.691 46.536C251.099 42.8667 252.678 39.88 254.427 37.576C256.176 35.272 257.883 33.6293 259.547 32.648C261.254 31.6667 262.811 31.176 264.219 31.176C266.992 31.176 268.379 32.5627 268.379 35.336C268.379 35.8907 268.187 37.2347 267.803 39.368C267.462 41.0747 267.291 42.1413 267.291 42.568C267.291 44.0613 267.824 44.808 268.891 44.808C270.086 44.808 271.622 43.8693 273.499 41.992C274.054 41.4373 274.63 41.16 275.227 41.16C275.782 41.16 276.208 41.416 276.507 41.928C276.848 42.3973 277.019 43.0373 277.019 43.848C277.019 45.4267 276.592 46.664 275.739 47.56C274.544 48.7973 273.136 49.864 271.515 50.76C269.936 51.6133 268.251 52.04 266.459 52.04C264.198 52.04 262.47 51.464 261.275 50.312C260.123 49.16 259.547 47.6027 259.547 45.64C259.547 45 259.611 44.36 259.739 43.72C259.824 42.8667 259.867 42.2907 259.867 41.992C259.867 41.3093 259.632 40.968 259.163 40.968C258.523 40.968 257.67 41.6933 256.603 43.144C255.579 44.552 254.555 46.4293 253.531 48.776C252.507 51.1227 251.675 53.5973 251.035 56.2C250.566 58.2053 250.011 59.5707 249.371 60.296C248.774 60.9787 247.814 61.32 246.491 61.32ZM293.984 48.648C294.539 48.648 294.965 48.904 295.264 49.416C295.605 49.928 295.776 50.632 295.776 51.528C295.776 53.064 295.413 54.3867 294.688 55.496C293.493 57.3307 291.915 58.76 289.952 59.784C288.032 60.808 285.728 61.32 283.04 61.32C278.944 61.32 275.765 60.104 273.504 57.672C271.243 55.1973 270.112 51.8693 270.112 47.688C270.112 44.744 270.731 42.0133 271.968 39.496C273.205 36.936 274.912 34.9093 277.088 33.416C279.307 31.9227 281.803 31.176 284.576 31.176C287.051 31.176 289.035 31.9227 290.528 33.416C292.021 34.8667 292.768 36.8507 292.768 39.368C292.768 42.312 291.701 44.8507 289.568 46.984C287.477 49.0747 283.893 50.7387 278.816 51.976C279.84 53.9387 281.568 54.92 284 54.92C285.749 54.92 287.179 54.5147 288.288 53.704C289.44 52.8933 290.763 51.528 292.256 49.608C292.768 48.968 293.344 48.648 293.984 48.648ZM283.488 37.448C281.909 37.448 280.565 38.3653 279.456 40.2C278.389 42.0347 277.856 44.2533 277.856 46.856V46.984C280.373 46.3867 282.357 45.4907 283.808 44.296C285.259 43.1013 285.984 41.7147 285.984 40.136C285.984 39.3253 285.749 38.6853 285.28 38.216C284.853 37.704 284.256 37.448 283.488 37.448ZM307.428 46.024C306.574 46.024 305.87 45.832 305.316 45.448C304.761 45.064 304.484 44.4667 304.484 43.656L304.548 43.144C305.273 38.3653 306.254 32.9253 307.492 26.824C308.729 20.7227 309.881 15.4533 310.948 11.016C311.63 8.28533 313.486 6.92 316.516 6.92C319.246 6.92 320.612 7.79467 320.612 9.544C320.612 9.928 320.548 10.3547 320.42 10.824C319.31 15.3467 317.838 20.8293 316.003 27.272C314.169 33.672 312.42 39.24 310.756 43.976C310.286 45.3413 309.177 46.024 307.428 46.024ZM304.996 61.32C303.118 61.32 301.689 60.808 300.708 59.784C299.769 58.76 299.299 57.416 299.299 55.752C299.299 53.832 299.833 52.296 300.9 51.144C302.009 49.992 303.545 49.416 305.508 49.416C307.385 49.416 308.793 49.8853 309.732 50.824C310.713 51.72 311.204 53.064 311.204 54.856C311.204 56.8187 310.649 58.3973 309.54 59.592C308.43 60.744 306.916 61.32 304.996 61.32Z" fill="url(#paint0_linear_2_15)"/>
<defs>
<linearGradient id="paint0_linear_2_15" x1="-8.61587" y1="8.00002" x2="375.79" y2="8.00002" gradientUnits="userSpaceOnUse">
<stop offset="0.0001" stop-color="#5800FF"/>
<stop offset="1" stop-color="#E900FF"/>
</linearGradient>
</defs>
</svg>
